<?xml version="1.0" standalone="no"?>
<!DOCTYPE svg PUBLIC "-//W3C//DTD SVG 20010904//EN"
 "http://www.w3.org/TR/2001/REC-SVG-20010904/DTD/svg10.dtd">
<svg version="1.0" xmlns="http://www.w3.org/2000/svg"
 width="512.000000pt" height="512.000000pt" viewBox="0 0 512.000000 512.000000"
 preserveAspectRatio="xMidYMid meet">
<metadata>
Created by potrace 1.14, written by Peter Selinger 2001-2017
</metadata>
<g transform="translate(0.000000,512.000000) scale(0.100000,-0.100000)"
fill="#000000" stroke="none">
<path d="M2545 4786 c-66 -29 -95 -92 -95 -204 0 -101 26 -155 90 -189 l43
-23 835 0 c831 0 834 0 872 -21 21 -12 47 -38 59 -59 21 -38 21 -41 21 -872
l0 -835 23 -43 c34 -65 88 -90 191 -90 96 0 151 21 187 71 l24 34 3 1066 2
1066 -23 34 c-12 18 -38 44 -56 56 l-34 23 -1056 0 c-854 -1 -1062 -3 -1086
-14z"/>
<path d="M1262 3933 c-18 -9 -45 -32 -60 -51 l-27 -35 0 -1287 0 -1287 27 -35
c56 -73 -47 -68 1358 -68 1405 0 1302 -5 1358 68 l27 35 0 1287 0 1287 -27 35
c-56 73 47 68 -1360 68 -1149 0 -1266 -2 -1296 -17z"/>
<path d="M410 2648 c-24 -13 -53 -36 -64 -51 -21 -28 -21 -36 -24 -1096 l-2
-1068 23 -34 c12 -18 38 -44 56 -56 l34 -23 1066 2 1066 3 34 24 c50 36 71 91
71 187 0 103 -25 157 -90 191 l-43 23 -835 0 c-831 0 -834 0 -872 21 -21 12
-47 38 -59 59 -21 38 -21 41 -21 872 l0 835 -23 43 c-34 65 -88 90 -191 90
-65 0 -91 -5 -126 -22z"/>
</g>
</svg>
